Coordinates
version=1
nRows=11
nColumns=40
inDegrees=yes

Units are S.I. units (second, meters, Newtons, ...)
Angles are in degrees.

endheader
time	pelvis_tilt	pelvis_list	pelvis_rotation	pelvis_tx	pelvis_ty	pelvis_tz	hip_flexion_r	hip_adduction_r	hip_rotation_r	knee_angle_r	knee_angle_r_beta	ankle_angle_r	subtalar_angle_r	mtp_angle_r	hip_flexion_l	hip_adduction_l	hip_rotation_l	knee_angle_l	knee_angle_l_beta	ankle_angle_l	subtalar_angle_l	mtp_angle_l	lumbar_extension	lumbar_bending	lumbar_rotation	arm_flex_r	arm_add_r	arm_rot_r	elbow_flex_r	pro_sup_r	wrist_flex_r	wrist_dev_r	arm_flex_l	arm_add_l	arm_rot_l	elbow_flex_l	pro_sup_l	wrist_flex_l	wrist_dev_l
      7.42750000	     -4.66200127	     -5.13423464	      4.11054405	      1.05506461	      0.92193751	      0.48994926	     -0.96093334	      2.26759391	    -17.14881311	     14.67141030	     14.67141030	     16.98345725	     -0.51505310	     -2.86423608	     26.11809852	     -5.85365474	      0.48518047	     27.34734032	     27.34734032	      8.57418793	    -14.24921914	      2.74498073	     -7.90360191	      2.72043931	      4.56949966	     39.79262485	    -16.14684260	    -11.74544477	     86.13734482	     45.13173524	      0.00000000	      0.00000000	     -2.24126872	     -9.07754739	     -3.60095773	     39.11110744	     45.76171118	      0.00000000	      0.00000000
      7.44657143	     -4.68909651	     -5.12008797	      3.82022575	      1.05547026	      0.92245219	      0.48642560	     -1.01687536	      1.83089125	    -17.14335383	     15.31486390	     15.31486390	     16.89280395	     -0.18814848	     -2.78920179	     25.74155774	     -5.68122581	      0.35296375	     27.60246348	     27.60246348	      9.59732136	    -14.28321978	      4.12983027	     -7.81360420	      2.76164728	      3.60589515	     40.01152313	    -14.80124030	    -11.25867979	     82.39160798	     45.24542597	      0.00000000	      0.00000000	     -1.53019961	     -9.41716782	     -4.25361105	     39.74858747	     45.87050002	      0.00000000	      0.00000000
      7.46564286	     -4.68847099	     -5.23981538	      3.55109677	      1.05584787	      0.92297683	      0.48306485	     -1.17193024	      1.61542715	    -16.97213645	     15.75571306	     15.75571306	     16.65035150	     -0.13179298	     -2.80831960	     25.29417380	     -5.67201229	      0.18988153	     27.68878659	     27.68878659	      9.97999646	    -14.46445259	      4.03289979	     -7.90602762	      2.93525915	      3.41306449	     38.91802037	    -14.42694425	    -11.04587817	     81.78839328	     45.25332254	      0.00000000	      0.00000000	     -0.22362146	     -9.84858447	     -4.35599328	     40.24888813	     45.90182344	      0.00000000	      0.00000000
      7.48471429	     -4.72609080	     -5.02465199	      3.14865063	      1.05616950	      0.92346632	      0.47958865	     -0.94466560	      0.86571942	    -16.77535971	     16.91760866	     16.91760866	     16.56471740	     -0.15795871	     -3.13924055	     24.71258144	     -5.35215484	     -0.25530276	     27.56521689	     27.56521689	     10.39454630	    -14.50725590	      4.09229484	     -7.79920012	      2.72747706	      3.90840706	     37.61783553	    -14.92668204	    -11.05197877	     79.37288445	     45.32841049	      0.00000000	      0.00000000	      1.31915601	    -10.10782107	     -4.42264833	     40.82162207	     45.93544121	      0.00000000	      0.00000000
      7.50378571	     -4.73507667	     -4.96489028	      2.82263596	      1.05646655	      0.92395486	      0.47608816	     -0.87065251	      0.33818366	    -16.64359525	     17.78887618	     17.78887618	     16.37116556	     -0.06942592	     -3.44833528	     24.16932430	     -5.15206990	     -0.55100208	     27.51269204	     27.51269204	     10.80067665	    -14.64188476	      4.17138067	     -7.74368199	      2.75791914	      3.86780402	     36.43588597	    -14.83316933	    -10.92542784	     77.15320838	     45.39207264	      0.00000000	      0.00000000	      2.76031620	    -10.49601841	     -4.32794855	     41.02397008	     45.94839021	      0.00000000	      0.00000000
      7.52285714	     -4.65591565	     -5.13224235	      2.58253143	      1.05677483	      0.92453597	      0.47266263	     -1.02118837	      0.14302293	    -16.47373420	     18.35667574	     18.35667574	     16.09824753	      0.00898163	     -3.53768374	     23.61726450	     -5.16914309	     -0.67545033	     27.54342960	     27.54342960	     11.15566930	    -14.79847236	      4.11335966	     -7.87393995	      3.10128191	      3.46061201	     34.97657258	    -14.33788286	    -10.69515282	     76.25532129	     45.40697099	      0.00000000	      0.00000000	      4.01233842	    -10.97563446	     -4.36333441	     41.37029787	     45.97053758	      0.00000000	      0.00000000
      7.54192857	     -4.69846872	     -4.91044472	      2.18468465	      1.05689960	      0.92489757	      0.46912192	     -0.69351110	     -0.66881242	    -16.35558134	     19.60598777	     19.60598777	     15.68643845	      0.04893865	     -4.81096910	     23.05866726	     -4.79254910	     -1.06155573	     27.42043384	     27.42043384	     11.69143064	    -14.88732095	      4.58808829	     -7.60122180	      2.95143549	      3.26480413	     34.40440606	    -14.21184084	    -10.32911071	     71.03818613	     45.55864852	      0.00000000	      0.00000000	      5.73300746	    -11.50206657	     -3.34780677	     40.35052267	     45.89623747	      0.00000000	      0.00000000
      7.56100000	     -4.66612138	     -4.83351872	      1.80624063	      1.05703334	      0.92531236	      0.46571411	     -0.43031137	     -1.26681028	    -16.06297322	     20.84238122	     20.84238122	     15.41651260	     -0.09055691	     -5.26880407	     22.45458356	     -4.58755074	     -1.44042861	     27.31575602	     27.31575602	     12.07234716	    -14.93940710	      4.57397184	     -7.60888589	      2.99483337	      3.26426226	     32.58274569	    -14.32497564	    -10.13122047	     69.35472447	     45.59835577	      0.00000000	      0.00000000	      7.09137033	    -11.88679507	     -3.31867800	     40.80448636	     45.91754241	      0.00000000	      0.00000000
      7.58007143	     -4.64544158	     -4.76683534	      1.39979777	      1.05705278	      0.92561620	      0.46235138	     -0.00701695	     -1.89439042	    -15.74017039	     22.31664609	     22.31664609	     15.07405172	     -0.31927027	     -5.92374464	     21.89082894	     -4.38720880	     -1.80673750	     27.24468365	     27.24468365	     12.46382016	    -15.06150653	      4.58755576	     -7.60809510	      3.09009248	      3.29018296	     30.75076038	    -14.47494754	     -9.89193970	     67.19921959	     45.65206162	      0.00000000	      0.00000000	      8.52826841	    -12.23614942	     -3.18048360	     41.03803620	     45.92709876	      0.00000000	      0.00000000
      7.59914286	     -4.63966823	     -4.72775600	      0.95730949	      1.05693833	      0.92582710	      0.45909654	      0.60659092	     -2.51126899	    -15.34050982	     24.05653305	     24.05653305	     14.52951424	     -0.80773885	     -7.00888094	     21.37879948	     -4.21859855	     -2.16521823	     27.21377114	     27.21377114	     12.83547503	    -15.22974290	      4.70787900	     -7.52563302	      3.21981991	      3.33393539	     29.03878883	    -14.66142597	     -9.54099233	     64.27285362	     45.72656376	      0.00000000	      0.00000000	     10.06020590	    -12.53399441	     -2.81807314	     40.91579836	     45.91498822	      0.00000000	      0.00000000
      7.61821429	     -4.52835221	     -4.73167888	      0.50957192	      1.05681874	      0.92611455	      0.45601723	      1.10130109	     -3.00713984	    -14.78017638	     25.62063886	     25.62063886	     12.87869367	     -2.07737554	    -10.69336683	     20.79506039	     -4.09315349	     -2.44759166	     27.27998033	     27.27998033	     13.51671836	    -15.32024249	      5.28180759	     -7.52430013	      3.41427057	      2.90505297	     27.97652378	    -14.41506419	     -8.70861363	     59.87209363	     45.80030179	      0.00000000	      0.00000000	     11.38926757	    -13.23454152	     -1.60959126	     40.34802253	     45.86792326	      0.00000000	      0.00000000
